<svg width="26" height="38" viewBox="0 0 26 38" fill="none" xmlns="http://www.w3.org/2000/svg">
<path d="M12.6667 1.33337H6.83333C5.28624 1.33337 3.80251 1.94796 2.70854 3.04192C1.61458 4.13588 1 5.61961 1 7.16671C1 8.7138 1.61458 10.1975 2.70854 11.2915C3.80251 12.3855 5.28624 13 6.83333 13M12.6667 1.33337V13M12.6667 1.33337L18.5 1.33337C19.266 1.33337 20.0246 1.48426 20.7323 1.77741C21.4401 2.07056 22.0831 2.50024 22.6248 3.04192C23.1665 3.58359 23.5961 4.22665 23.8893 4.93439C24.1824 5.64212 24.3333 6.40066 24.3333 7.16671C24.3333 7.93275 24.1824 8.69129 23.8893 9.39903C23.5961 10.1068 23.1665 10.7498 22.6248 11.2915C22.0831 11.8332 21.4401 12.2629 20.7323 12.556C20.0246 12.8492 19.266 13 18.5 13M12.6667 13H6.83333M12.6667 13H18.5M12.6667 13V24.6667M6.83333 13C5.28624 13 3.80251 13.6146 2.70854 14.7086C1.61458 15.8025 1 17.2863 1 18.8334C1 20.3805 1.61458 21.8642 2.70854 22.9582C3.80251 24.0521 5.28624 24.6667 6.83333 24.6667M18.5 13C17.734 13 16.9754 13.1509 16.2677 13.4441C15.5599 13.7372 14.9169 14.1669 14.3752 14.7086C13.8335 15.2503 13.4039 15.8933 13.1107 16.6011C12.8176 17.3088 12.6667 18.0673 12.6667 18.8334C12.6667 19.5994 12.8176 20.358 13.1107 21.0657C13.4039 21.7734 13.8335 22.4165 14.3752 22.9582C14.9169 23.4998 15.5599 23.9295 16.2677 24.2227C16.9754 24.5158 17.734 24.6667 18.5 24.6667C19.266 24.6667 20.0246 24.5158 20.7323 24.2227C21.4401 23.9295 22.0831 23.4998 22.6248 22.9582C23.1665 22.4165 23.5961 21.7734 23.8893 21.0657C24.1824 20.358 24.3333 19.5994 24.3333 18.8334C24.3333 18.0673 24.1824 17.3088 23.8893 16.6011C23.5961 15.8933 23.1665 15.2503 22.6248 14.7086C22.0831 14.1669 21.4401 13.7372 20.7323 13.4441C20.0246 13.1509 19.266 13 18.5 13ZM6.83333 24.6667C5.28624 24.6667 3.80251 25.2813 2.70854 26.3752C1.61458 27.4692 1 28.9529 1 30.5C1 32.0471 1.61458 33.5309 2.70854 34.6248C3.80251 35.7188 5.28624 36.3334 6.83333 36.3334C8.38043 36.3334 9.86416 35.7188 10.9581 34.6248C12.0521 33.5309 12.6667 32.0471 12.6667 30.5V24.6667M6.83333 24.6667H12.6667" stroke="#D9D9D9" stroke-width="2" stroke-linecap="round" stroke-linejoin="round"/>
</svg>
