<svg width="34" height="34" viewBox="0 0 34 34" fill="none" xmlns="http://www.w3.org/2000/svg">
<path d="M20.4998 8.50001C20.1944 8.81156 20.0233 9.23042 20.0233 9.66667C20.0233 10.1029 20.1944 10.5218 20.4998 10.8333L23.1664 13.5C23.478 13.8054 23.8968 13.9764 24.3331 13.9764C24.7693 13.9764 25.1882 13.8054 25.4998 13.5L31.7831 7.21667C32.6211 9.06866 32.8749 11.1321 32.5105 13.1319C32.1461 15.1318 31.1809 16.9731 29.7436 18.4105C28.3062 19.8479 26.4649 20.8131 24.465 21.1774C22.4651 21.5418 20.4017 21.2881 18.5498 20.45L7.03309 31.9667C6.37005 32.6297 5.47077 33.0022 4.53309 33.0022C3.59541 33.0022 2.69613 32.6297 2.03309 31.9667C1.37005 31.3036 0.997559 30.4044 0.997559 29.4667C0.997559 28.529 1.37005 27.6297 2.03309 26.9667L13.5498 15.45C12.7117 13.598 12.458 11.5346 12.8223 9.53476C13.1867 7.53491 14.1519 5.6936 15.5893 4.25621C17.0267 2.81882 18.868 1.85362 20.8678 1.48924C22.8677 1.12487 24.9311 1.37861 26.7831 2.21667L20.4998 8.50001Z" stroke="#D9D9D9" stroke-width="2" stroke-linecap="round" stroke-linejoin="round"/>
</svg>
